<?xml version="1.0" encoding="UTF-8" standalone="no"?>
<!-- Generator: Adobe Illustrator 15.1.0, SVG Export Plug-In . SVG Version: 6.00 Build 0)  -->

<svg
   xmlns:dc="http://purl.org/dc/elements/1.1/"
   xmlns:cc="http://creativecommons.org/ns#"
   xmlns:rdf="http://www.w3.org/1999/02/22-rdf-syntax-ns#"
   xmlns:svg="http://www.w3.org/2000/svg"
   xmlns="http://www.w3.org/2000/svg"
   xmlns:sodipodi="http://sodipodi.sourceforge.net/DTD/sodipodi-0.dtd"
   xmlns:inkscape="http://www.inkscape.org/namespaces/inkscape"
   version="1.1"
   id="Ebene_1"
   x="0px"
   y="0px"
   width="1218px"
   height="287px"
   viewBox="0 0 1218 287"
   enable-background="new 0 0 1218 287"
   xml:space="preserve"
   sodipodi:docname="fsk_logo.svg"
   inkscape:version="0.92.2 (5c3e80d, 2017-08-06)"><metadata
     id="metadata3283"><rdf:RDF><cc:Work
         rdf:about=""><dc:format>image/svg+xml</dc:format><dc:type
           rdf:resource="http://purl.org/dc/dcmitype/StillImage" /><dc:title /></cc:Work></rdf:RDF></metadata><defs
     id="defs3281" /><sodipodi:namedview
     pagecolor="#ffffff"
     bordercolor="#666666"
     borderopacity="1"
     objecttolerance="10"
     gridtolerance="10"
     guidetolerance="10"
     inkscape:pageopacity="0"
     inkscape:pageshadow="2"
     inkscape:window-width="1920"
     inkscape:window-height="1020"
     id="namedview3279"
     showgrid="false"
     inkscape:zoom="0.34893268"
     inkscape:cx="-160.48941"
     inkscape:cy="143.5"
     inkscape:window-x="0"
     inkscape:window-y="35"
     inkscape:window-maximized="1"
     inkscape:current-layer="Ebene_1" /><g
     id="g3276"><path
       d="M427.438,74.377h28.981v5.703h-21.554v16.547h16.149v5.703h-16.149v22.516h-7.428V74.377z"
       id="path3212" /><path
       d="M463.301,121.989c-1.027-0.936-1.829-2.073-2.403-3.414c-0.575-1.341-0.862-3.059-0.862-5.154   c0-2.095,0.663-4.021,1.989-5.78c2.785-3.694,8.224-5.542,16.314-5.542c1.238,0,2.388,0,3.449,0v-3.826   c0-2.551-0.664-4.27-1.99-5.157c-1.105-0.731-3.128-1.098-6.068-1.098c-2.542,0-5.338,0.6-8.389,1.798   c-0.796,0.306-1.404,0.61-1.824,0.915l-1.79-4.735c1.9-1.194,5.051-2.211,9.45-3.051c1.503-0.287,3.122-0.431,4.857-0.431   s3.427,0.158,5.073,0.474c1.647,0.316,3.067,0.911,4.262,1.783c2.476,1.831,3.714,5.036,3.714,9.615v26.493h-2.984   c-1.415,0-2.333-0.133-2.753-0.398c-0.751-0.508-1.127-1.524-1.127-3.05v-0.266c-1.813,1.658-4.256,2.785-7.328,3.382   c-1.062,0.222-2.294,0.332-3.697,0.332c-1.404,0-2.813-0.248-4.229-0.743C465.551,123.64,464.329,122.925,463.301,121.989z    M467.23,113.604c0,3.892,2.178,5.836,6.532,5.836c2.409,0,4.709-0.63,6.897-1.89c0.553-0.31,0.929-0.575,1.128-0.796v-10.578   c-2.587,0-4.787,0.222-6.6,0.663c-1.813,0.442-3.045,0.818-3.697,1.128s-1.232,0.636-1.74,0.978   c-0.509,0.344-0.951,0.746-1.326,1.211C467.629,111.106,467.23,112.257,467.23,113.604z"
       id="path3214" /><path
       d="M524.032,94.543c-1.968-1.595-4.797-2.393-8.488-2.393c-2.896,0-5.317,0.978-7.263,2.931   c-2.409,2.453-3.614,6.036-3.614,10.746c0,4.061,0.979,7.333,2.935,9.818c1.957,2.486,4.537,3.729,7.743,3.729   c2.52,0,4.995-0.471,7.428-1.413c0.641-0.235,1.171-0.481,1.592-0.739l1.492,4.076c-2.587,2.388-6.455,3.581-11.606,3.581   c-5.173,0-9.273-1.801-12.302-5.401c-2.874-3.404-4.311-7.867-4.311-13.389c0-5.739,1.525-10.377,4.576-13.913   c3.249-3.774,7.813-5.662,13.694-5.662c4.156,0,7.251,0.651,9.285,1.956L524.032,94.543z"
       id="path3216" /><path
       d="M533.483,70.1h7.295v15.453l-0.331,5.271c2.498-1.813,5.537-3.105,9.119-3.88c1.414-0.287,2.901-0.431,4.46-0.431   c1.558,0,3.045,0.265,4.46,0.795c1.414,0.53,2.586,1.413,3.515,2.65c1.835,2.407,2.752,6.361,2.752,11.86v23.026h-7.295v-23.552   c0-3.225-0.497-5.466-1.492-6.725c-1.039-1.325-2.752-1.988-5.14-1.988c-2.433,0-4.985,0.756-7.66,2.266   c-0.84,0.471-1.636,1.015-2.388,1.634v28.365h-7.295V70.1z"
       id="path3218" /><path
       d="M575.198,116.84c1.503,0.964,3.857,1.725,7.063,2.28c1.304,0.236,2.785,0.354,4.443,0.354s3.067-0.397,4.228-1.192   c1.161-0.794,1.741-1.922,1.741-3.381c0-1.938-1.592-3.681-4.775-5.227c-0.928-0.457-2.039-0.958-3.332-1.503   c-1.293-0.544-2.592-1.187-3.896-1.927c-4.223-2.461-6.333-5.749-6.333-9.865c0-3.18,1.359-5.662,4.078-7.448   c2.432-1.611,5.626-2.417,9.583-2.417c3.007,0,5.759,0.464,8.257,1.393c0.597,0.221,1.039,0.409,1.326,0.563l-1.193,5.819   c-1.062-1.018-2.918-1.742-5.57-2.175c-0.841-0.152-1.703-0.229-2.587-0.229c-2.344,0-4.123,0.365-5.339,1.095   s-1.823,1.623-1.823,2.679c0,1.057,0.16,1.9,0.48,2.532c0.32,0.631,0.801,1.208,1.442,1.73c1.039,0.894,2.515,1.721,4.427,2.483   s3.526,1.486,4.842,2.172c1.314,0.687,2.514,1.486,3.598,2.401c2.409,2.091,3.614,4.584,3.614,7.48   c0,3.354-1.205,5.935-3.614,7.742c-2.321,1.786-5.561,2.679-9.716,2.679c-3.803,0-7.174-0.574-10.114-1.725   c-0.84-0.309-1.48-0.63-1.923-0.961L575.198,116.84z"
       id="path3220" /><path
       d="M632.398,94.543c-1.968-1.595-4.797-2.393-8.488-2.393c-2.896,0-5.317,0.978-7.263,2.931   c-2.409,2.453-3.614,6.036-3.614,10.746c0,4.061,0.979,7.333,2.935,9.818c1.957,2.486,4.537,3.729,7.743,3.729   c2.52,0,4.995-0.471,7.428-1.413c0.641-0.235,1.171-0.481,1.592-0.739l1.492,4.076c-2.587,2.388-6.455,3.581-11.606,3.581   c-5.173,0-9.273-1.801-12.302-5.401c-2.874-3.404-4.311-7.867-4.311-13.389c0-5.739,1.525-10.377,4.576-13.913   c3.249-3.774,7.813-5.662,13.694-5.662c4.156,0,7.251,0.651,9.285,1.956L632.398,94.543z"
       id="path3222" /><path
       d="M641.849,70.1h7.295v15.453l-0.331,5.271c2.498-1.813,5.537-3.105,9.119-3.88c1.414-0.287,2.901-0.431,4.46-0.431   c1.558,0,3.045,0.265,4.46,0.795c1.414,0.53,2.586,1.413,3.515,2.65c1.835,2.407,2.752,6.361,2.752,11.86v23.026h-7.295v-23.552   c0-3.225-0.497-5.466-1.492-6.725c-1.039-1.325-2.752-1.988-5.14-1.988c-2.433,0-4.985,0.756-7.66,2.266   c-0.84,0.471-1.636,1.015-2.388,1.634v28.365h-7.295V70.1z"
       id="path3224" /><path
       d="M685.139,121.989c-1.027-0.936-1.829-2.073-2.403-3.414c-0.575-1.341-0.862-3.059-0.862-5.154   c0-2.095,0.663-4.021,1.989-5.78c2.785-3.694,8.224-5.542,16.314-5.542c1.238,0,2.388,0,3.449,0v-3.826   c0-2.551-0.664-4.27-1.99-5.157c-1.105-0.731-3.128-1.098-6.068-1.098c-2.542,0-5.338,0.6-8.389,1.798   c-0.796,0.306-1.404,0.61-1.824,0.915l-1.79-4.735c1.9-1.194,5.051-2.211,9.45-3.051c1.503-0.287,3.122-0.431,4.857-0.431   s3.427,0.158,5.073,0.474c1.647,0.316,3.067,0.911,4.262,1.783c2.476,1.831,3.714,5.036,3.714,9.615v26.493h-2.984   c-1.415,0-2.333-0.133-2.753-0.398c-0.751-0.508-1.127-1.524-1.127-3.05v-0.266c-1.813,1.658-4.256,2.785-7.328,3.382   c-1.062,0.222-2.294,0.332-3.697,0.332c-1.404,0-2.813-0.248-4.229-0.743C687.389,123.64,686.167,122.925,685.139,121.989z    M689.068,113.604c0,3.892,2.178,5.836,6.532,5.836c2.409,0,4.709-0.63,6.897-1.89c0.553-0.31,0.929-0.575,1.128-0.796v-10.578   c-2.587,0-4.787,0.222-6.6,0.663c-1.813,0.442-3.045,0.818-3.697,1.128s-1.232,0.636-1.74,0.978   c-0.509,0.344-0.951,0.746-1.326,1.211C689.467,111.106,689.068,112.257,689.068,113.604z"
       id="path3226" /><path
       d="M742.886,76.653c-1.326-0.479-2.808-0.718-4.443-0.718s-2.78,0.13-3.432,0.39c-0.652,0.261-1.222,0.65-1.708,1.171   c-1.017,1.079-1.525,2.649-1.525,4.711v4.307h9.352v5.504h-9.352v32.828h-7.295V92.018h-5.736v-4.045l5.736-1.459v-2.999   c0-6.057,2.476-10.135,7.428-12.234c1.879-0.787,3.852-1.181,5.919-1.181c2.066,0,3.752,0.243,5.057,0.729V76.653z"
       id="path3228" /><path
       d="M750.712,92.018h-4.908v-3.946c0.818-0.242,1.537-0.445,2.156-0.611c0.618-0.165,1.148-0.347,1.591-0.545   c0.885-0.419,1.492-1.063,1.824-1.934c0.332-0.87,0.668-1.884,1.012-3.041c0.342-1.156,0.746-2.495,1.21-4.016h4.377v8.589h10.678   v5.504h-10.678v19.153c0,3.563,0.199,5.698,0.597,6.405c0.398,0.709,0.867,1.129,1.409,1.262s1.161,0.199,1.857,0.199   s1.354-0.044,1.973-0.133c0.619-0.088,1.228-0.199,1.824-0.331c1.393-0.31,2.388-0.631,2.984-0.962l1.26,4.184   c-1.791,1.326-4.289,2.267-7.494,2.818c-1.017,0.178-2.067,0.266-3.15,0.266s-2.155-0.133-3.216-0.398   c-1.062-0.266-1.99-0.752-2.786-1.461c-1.68-1.526-2.52-4.104-2.52-7.733V92.018z"
       id="path3230" /><path
       d="M427.438,151.377h7.395v25.334l19.996-25.334h8.721l-17.873,21.753c0.929,1.547,2.746,4.311,5.455,8.289   c2.707,3.979,4.581,6.743,5.62,8.29c2.454,3.736,4.211,6.565,5.272,8.489l2.155,3.647h-8.522c-0.243-0.332-0.476-0.729-0.696-1.193   l-0.597-1.228c-1.349-2.674-3.664-6.449-6.946-11.324c-3.283-4.874-5.389-8.041-6.317-9.5l-6.268,7.295v15.95h-7.395V151.377z"
       id="path3232" /><path
       d="M485.767,201.879c-2.719,0-5.129-0.546-7.229-1.637c-5.925-3.012-8.887-8.937-8.887-17.775c0-6.132,1.68-10.879,5.04-14.24   c3.139-3.142,7.206-4.713,12.203-4.713c5.703,0,10.002,1.996,12.898,5.99c2.476,3.426,3.714,7.987,3.714,13.684   c0,5.914-1.69,10.573-5.073,13.978C495.339,200.308,491.116,201.879,485.767,201.879z M486.563,196.706   c3.117,0,5.488-1.167,7.112-3.502c1.625-2.335,2.438-5.686,2.438-10.052c0-6.603-1.725-11.012-5.173-13.227   c-1.238-0.782-2.73-1.174-4.477-1.174c-3.051,0-5.383,1.141-6.996,3.422c-1.614,2.28-2.421,5.561-2.421,9.839   c0,4.214,0.807,7.716,2.421,10.507C481.08,195.311,483.445,196.706,486.563,196.706z"
       id="path3234" /><path
       d="M521.479,188.35c-1.415,1.063-2.122,2.379-2.122,3.949c0,1.479,0.243,2.425,0.729,2.841c0.773,0.646,1.968,0.97,3.581,0.97   h6.864c5.261,0,9.02,1.089,11.274,3.268c1.769,1.699,2.652,4.074,2.652,7.124c0,3.639-1.802,6.611-5.404,8.922   c-3.428,2.156-7.749,3.234-12.966,3.234c-7.561,0-12.435-2.03-14.623-6.092c-0.752-1.368-1.128-2.753-1.128-4.153   c0-1.401,0.16-2.492,0.48-3.273c0.32-0.782,0.735-1.499,1.244-2.15c0.884-1.107,2.066-2.063,3.548-2.867   c-1.945-1.134-2.918-3.071-2.918-5.815c0.044-1.292,0.464-2.602,1.26-3.928s1.924-2.5,3.383-3.521   c-2.012-1.046-3.604-2.463-4.775-4.25s-1.758-3.814-1.758-6.082c0-2.267,0.382-4.195,1.145-5.786   c0.763-1.592,1.818-2.91,3.167-3.957c2.74-2.179,6.466-3.269,11.175-3.269c3.47,0,6.477,0.762,9.02,2.287   c2.011-1.525,4.365-2.287,7.063-2.287h3.681v6.067h-6.931c1.128,1.891,1.691,3.956,1.691,6.194s-0.393,4.15-1.177,5.736   c-0.785,1.587-1.863,2.923-3.233,4.01c-2.741,2.173-6.345,3.26-10.81,3.26C524.088,188.781,522.718,188.638,521.479,188.35z    M519.854,201.613c-1.613,1.355-2.42,3.098-2.42,5.229c0,3.42,1.603,5.539,4.808,6.356c1.128,0.302,2.465,0.452,4.013,0.452   c1.547,0,2.989-0.118,4.327-0.354c1.337-0.237,2.525-0.592,3.564-1.064c2.232-0.989,3.35-2.376,3.35-4.16   c0-2.151-0.608-3.688-1.824-4.612c-1.415-1.076-3.924-1.613-7.527-1.613h-3.382C522.441,201.846,520.805,201.769,519.854,201.613z    M533.55,176.245c0-5.193-2.487-7.791-7.461-7.791c-3.759,0-6.212,1.267-7.361,3.798c-0.442,0.996-0.663,2.143-0.663,3.441   c0,1.298,0.144,2.418,0.431,3.359c0.287,0.942,0.74,1.77,1.359,2.483c1.349,1.581,3.316,2.37,5.902,2.37   c3.891,0,6.312-1.331,7.263-3.993C533.372,178.939,533.55,177.717,533.55,176.245z"
       id="path3236" /><path
       d="M552.882,163.514h6.499l0.033,4.456c2.764-1.838,5.902-3.163,9.418-3.976c1.459-0.32,2.984-0.48,4.576-0.48   c1.591,0,3.072,0.237,4.443,0.712c1.37,0.476,2.509,1.298,3.415,2.469c1.702,2.23,2.554,6.106,2.554,11.628v23.523h-7.296v-23.552   c0-3.313-0.442-5.599-1.326-6.857c-0.884-1.281-2.476-1.922-4.774-1.922c-2.499,0-5.118,0.778-7.859,2.335   c-0.84,0.47-1.636,1.013-2.388,1.631v28.365h-7.295V163.514z"
       id="path3238" /><path
       d="M603.003,155.307c-0.498,0.453-1.072,0.807-1.725,1.061c-0.652,0.255-1.305,0.382-1.956,0.382   c-0.652,0-1.261-0.105-1.824-0.315s-1.066-0.514-1.509-0.912c-0.929-0.84-1.393-1.773-1.393-2.802s0.154-1.856,0.464-2.487   c0.31-0.63,0.719-1.177,1.228-1.641c1.083-0.995,2.166-1.492,3.249-1.492s1.918,0.115,2.504,0.348s1.066,0.559,1.442,0.979   c0.773,0.796,1.161,1.713,1.161,2.752s-0.149,1.874-0.448,2.504C603.898,154.312,603.5,154.854,603.003,155.307z M595.856,163.514   h7.296v38.332h-7.296V163.514z"
       id="path3240" /><path
       d="M617.112,169.018h-4.908v-3.946c0.818-0.242,1.537-0.445,2.156-0.611c0.618-0.165,1.148-0.347,1.591-0.545   c0.885-0.419,1.492-1.063,1.824-1.934c0.332-0.87,0.668-1.884,1.012-3.041c0.342-1.156,0.746-2.495,1.21-4.016h4.377v8.589h10.678   v5.504h-10.678v19.153c0,3.563,0.199,5.698,0.597,6.405c0.398,0.709,0.867,1.129,1.409,1.262s1.161,0.199,1.857,0.199   s1.354-0.044,1.973-0.133c0.619-0.088,1.228-0.199,1.824-0.331c1.393-0.31,2.388-0.631,2.984-0.962l1.26,4.184   c-1.791,1.326-4.289,2.267-7.494,2.818c-1.017,0.178-2.067,0.266-3.15,0.266s-2.155-0.133-3.216-0.398   c-1.062-0.266-1.99-0.752-2.786-1.461c-1.68-1.526-2.52-4.104-2.52-7.733V169.018z"
       id="path3242" /><path
       d="M651.283,155.307c-0.498,0.453-1.072,0.807-1.725,1.061c-0.652,0.255-1.305,0.382-1.956,0.382   c-0.652,0-1.261-0.105-1.824-0.315s-1.066-0.514-1.509-0.912c-0.929-0.84-1.393-1.773-1.393-2.802s0.154-1.856,0.464-2.487   c0.31-0.63,0.719-1.177,1.228-1.641c1.083-0.995,2.166-1.492,3.249-1.492s1.918,0.115,2.504,0.348s1.066,0.559,1.442,0.979   c0.773,0.796,1.161,1.713,1.161,2.752s-0.149,1.874-0.448,2.504C652.179,154.312,651.78,154.854,651.283,155.307z M644.137,163.514   h7.296v38.332h-7.296V163.514z"
       id="path3244" /><path
       d="M677.131,201.879c-2.719,0-5.129-0.546-7.229-1.637c-5.925-3.012-8.887-8.937-8.887-17.775c0-6.132,1.68-10.879,5.04-14.24   c3.139-3.142,7.206-4.713,12.203-4.713c5.703,0,10.002,1.996,12.898,5.99c2.476,3.426,3.714,7.987,3.714,13.684   c0,5.914-1.691,10.573-5.073,13.978C686.703,200.308,682.48,201.879,677.131,201.879z M677.927,196.706   c3.117,0,5.488-1.167,7.112-3.502c1.625-2.335,2.438-5.686,2.438-10.052c0-6.603-1.725-11.012-5.173-13.227   c-1.238-0.782-2.73-1.174-4.477-1.174c-3.051,0-5.383,1.141-6.996,3.422c-1.614,2.28-2.421,5.561-2.421,9.839   c0,4.214,0.807,7.716,2.421,10.507C672.444,195.311,674.81,196.706,677.927,196.706z"
       id="path3246" /><path
       d="M703.891,163.514h6.499l0.033,4.456c2.764-1.838,5.902-3.163,9.418-3.976c1.459-0.32,2.984-0.48,4.576-0.48   c1.591,0,3.072,0.237,4.443,0.712c1.37,0.476,2.509,1.298,3.415,2.469c1.702,2.23,2.554,6.106,2.554,11.628v23.523h-7.296v-23.552   c0-3.313-0.442-5.599-1.326-6.857c-0.884-1.281-2.476-1.922-4.774-1.922c-2.499,0-5.118,0.778-7.859,2.335   c-0.84,0.47-1.636,1.013-2.388,1.631v28.365h-7.295V163.514z"
       id="path3248" /><path
       d="M745.274,193.84c1.503,0.964,3.857,1.725,7.063,2.28c1.304,0.236,2.785,0.354,4.443,0.354s3.067-0.397,4.228-1.192   c1.161-0.794,1.741-1.922,1.741-3.381c0-1.938-1.592-3.681-4.775-5.227c-0.928-0.457-2.039-0.958-3.332-1.503   c-1.293-0.544-2.592-1.187-3.896-1.927c-4.223-2.461-6.333-5.749-6.333-9.865c0-3.18,1.359-5.662,4.078-7.448   c2.432-1.611,5.626-2.417,9.583-2.417c3.007,0,5.759,0.464,8.257,1.393c0.597,0.221,1.039,0.409,1.326,0.563l-1.193,5.819   c-1.062-1.018-2.918-1.742-5.57-2.175c-0.841-0.152-1.703-0.229-2.587-0.229c-2.344,0-4.123,0.365-5.339,1.095   s-1.823,1.623-1.823,2.679c0,1.057,0.16,1.9,0.48,2.532c0.32,0.631,0.801,1.208,1.442,1.73c1.039,0.894,2.515,1.721,4.427,2.483   s3.526,1.486,4.842,2.172c1.314,0.687,2.514,1.486,3.598,2.401c2.409,2.091,3.614,4.584,3.614,7.48   c0,3.354-1.205,5.935-3.614,7.742c-2.321,1.786-5.561,2.679-9.716,2.679c-3.803,0-7.174-0.574-10.114-1.725   c-0.84-0.309-1.48-0.63-1.923-0.961L745.274,193.84z"
       id="path3250" /><path
       d="M773.559,163.514h7.295l6.102,23.085l1.658,7.223l1.525-7.189l6.3-23.118h7.263l6.267,23.083l1.625,7.357l1.658-7.121   l5.902-23.319h7.129l-11.539,38.862h-6.731l-6.765-24.704l-1.227-6.034l-1.327,6.034l-6.665,24.704h-6.93L773.559,163.514z"
       id="path3252" /><path
       d="M840.524,155.307c-0.498,0.453-1.072,0.807-1.725,1.061c-0.652,0.255-1.305,0.382-1.956,0.382   c-0.652,0-1.261-0.105-1.824-0.315s-1.066-0.514-1.509-0.912c-0.929-0.84-1.393-1.773-1.393-2.802s0.154-1.856,0.464-2.487   c0.31-0.63,0.719-1.177,1.228-1.641c1.083-0.995,2.166-1.492,3.249-1.492s1.918,0.115,2.504,0.348s1.066,0.559,1.442,0.979   c0.773,0.796,1.161,1.713,1.161,2.752s-0.149,1.874-0.448,2.504C841.42,154.312,841.021,154.854,840.524,155.307z M833.378,163.514   h7.296v38.332h-7.296V163.514z"
       id="path3254" /><path
       d="M851.882,193.84c1.503,0.964,3.857,1.725,7.063,2.28c1.304,0.236,2.785,0.354,4.443,0.354s3.067-0.397,4.228-1.192   c1.161-0.794,1.741-1.922,1.741-3.381c0-1.938-1.592-3.681-4.775-5.227c-0.928-0.457-2.039-0.958-3.332-1.503   c-1.293-0.544-2.592-1.187-3.896-1.927c-4.223-2.461-6.333-5.749-6.333-9.865c0-3.18,1.359-5.662,4.078-7.448   c2.432-1.611,5.626-2.417,9.583-2.417c3.007,0,5.759,0.464,8.257,1.393c0.597,0.221,1.039,0.409,1.326,0.563l-1.193,5.819   c-1.062-1.018-2.918-1.742-5.57-2.175c-0.841-0.152-1.703-0.229-2.587-0.229c-2.344,0-4.123,0.365-5.339,1.095   s-1.823,1.623-1.823,2.679c0,1.057,0.16,1.9,0.48,2.532c0.32,0.631,0.801,1.208,1.442,1.73c1.039,0.894,2.515,1.721,4.427,2.483   s3.526,1.486,4.842,2.172c1.314,0.687,2.514,1.486,3.598,2.401c2.409,2.091,3.614,4.584,3.614,7.48   c0,3.354-1.205,5.935-3.614,7.742c-2.321,1.786-5.561,2.679-9.716,2.679c-3.803,0-7.174-0.574-10.114-1.725   c-0.84-0.309-1.48-0.63-1.923-0.961L851.882,193.84z"
       id="path3256" /><path
       d="M884.279,193.84c1.503,0.964,3.857,1.725,7.063,2.28c1.304,0.236,2.785,0.354,4.443,0.354s3.067-0.397,4.228-1.192   c1.161-0.794,1.741-1.922,1.741-3.381c0-1.938-1.592-3.681-4.775-5.227c-0.928-0.457-2.039-0.958-3.332-1.503   c-1.293-0.544-2.592-1.187-3.896-1.927c-4.223-2.461-6.333-5.749-6.333-9.865c0-3.18,1.359-5.662,4.078-7.448   c2.432-1.611,5.626-2.417,9.583-2.417c3.007,0,5.759,0.464,8.257,1.393c0.597,0.221,1.039,0.409,1.326,0.563l-1.193,5.819   c-1.062-1.018-2.918-1.742-5.57-2.175c-0.841-0.152-1.703-0.229-2.587-0.229c-2.344,0-4.123,0.365-5.339,1.095   s-1.823,1.623-1.823,2.679c0,1.057,0.16,1.9,0.48,2.532c0.32,0.631,0.801,1.208,1.442,1.73c1.039,0.894,2.515,1.721,4.427,2.483   s3.526,1.486,4.842,2.172c1.314,0.687,2.514,1.486,3.598,2.401c2.409,2.091,3.614,4.584,3.614,7.48   c0,3.354-1.205,5.935-3.614,7.742c-2.321,1.786-5.561,2.679-9.716,2.679c-3.803,0-7.174-0.574-10.114-1.725   c-0.84-0.309-1.48-0.63-1.923-0.961L884.279,193.84z"
       id="path3258" /><path
       d="M922.213,184.039c0.332,6.544,2.741,10.457,7.229,11.738c1.349,0.398,2.564,0.597,3.647,0.597s2.073-0.055,2.968-0.165   c0.896-0.11,1.785-0.254,2.67-0.432c2.056-0.441,3.548-0.929,4.477-1.459l1.393,4.179c-1.835,1.503-4.907,2.542-9.219,3.116   c-1.238,0.178-2.42,0.266-3.548,0.266c-5.35,0-9.483-1.702-12.401-5.106c-2.896-3.36-4.344-8.074-4.344-14.142   c0-5.608,1.426-10.126,4.277-13.553c3.095-3.71,7.361-5.564,12.8-5.564c3.868,0,7.029,1.144,9.483,3.431   c2.697,2.569,4.111,6.065,4.244,10.49c0,3.28-0.121,5.482-0.364,6.604H922.213z M939.091,177.805c0-6.079-2.509-9.118-7.526-9.118   c-5.328,0-8.39,3.504-9.186,10.511h16.679C939.08,178.733,939.091,178.27,939.091,177.805z"
       id="path3260" /><path
       d="M954.941,163.514h6.499l0.033,4.456c2.764-1.838,5.902-3.163,9.418-3.976c1.459-0.32,2.984-0.48,4.576-0.48   c1.591,0,3.072,0.237,4.443,0.712c1.37,0.476,2.509,1.298,3.415,2.469c1.702,2.23,2.554,6.106,2.554,11.628v23.523h-7.296v-23.552   c0-3.313-0.442-5.599-1.326-6.857c-0.884-1.281-2.476-1.922-4.774-1.922c-2.499,0-5.118,0.778-7.859,2.335   c-0.84,0.47-1.636,1.013-2.388,1.631v28.365h-7.295V163.514z"
       id="path3262" /><path
       d="M996.325,193.84c1.503,0.964,3.857,1.725,7.063,2.28c1.304,0.236,2.785,0.354,4.443,0.354s3.067-0.397,4.228-1.192   c1.161-0.794,1.741-1.922,1.741-3.381c0-1.938-1.592-3.681-4.775-5.227c-0.928-0.457-2.039-0.958-3.332-1.503   c-1.293-0.544-2.592-1.187-3.896-1.927c-4.223-2.461-6.333-5.749-6.333-9.865c0-3.18,1.359-5.662,4.078-7.448   c2.432-1.611,5.626-2.417,9.583-2.417c3.007,0,5.759,0.464,8.257,1.393c0.597,0.221,1.039,0.409,1.326,0.563l-1.193,5.819   c-1.062-1.018-2.918-1.742-5.57-2.175c-0.841-0.152-1.703-0.229-2.587-0.229c-2.344,0-4.123,0.365-5.339,1.095   s-1.823,1.623-1.823,2.679c0,1.057,0.16,1.9,0.48,2.532c0.32,0.631,0.801,1.208,1.442,1.73c1.039,0.894,2.515,1.721,4.427,2.483   s3.526,1.486,4.842,2.172c1.314,0.687,2.514,1.486,3.598,2.401c2.409,2.091,3.614,4.584,3.614,7.48   c0,3.354-1.205,5.935-3.614,7.742c-2.321,1.786-5.561,2.679-9.716,2.679c-3.803,0-7.174-0.574-10.114-1.725   c-0.84-0.309-1.48-0.63-1.923-0.961L996.325,193.84z"
       id="path3264" /><path
       d="M1053.525,171.543c-1.968-1.595-4.797-2.393-8.488-2.393c-2.896,0-5.317,0.978-7.263,2.931   c-2.409,2.453-3.614,6.036-3.614,10.746c0,4.061,0.979,7.333,2.935,9.818c1.957,2.486,4.537,3.729,7.743,3.729   c2.52,0,4.995-0.471,7.428-1.413c0.641-0.235,1.171-0.481,1.592-0.739l1.492,4.076c-2.587,2.388-6.455,3.581-11.606,3.581   c-5.173,0-9.273-1.801-12.302-5.401c-2.874-3.404-4.311-7.867-4.311-13.389c0-5.739,1.525-10.377,4.576-13.913   c3.249-3.774,7.813-5.662,13.694-5.662c4.156,0,7.251,0.651,9.285,1.956L1053.525,171.543z"
       id="path3266" /><path
       d="M1062.976,147.1h7.295v15.453l-0.331,5.271c2.498-1.813,5.537-3.105,9.119-3.88c1.414-0.287,2.901-0.431,4.46-0.431   c1.558,0,3.045,0.265,4.46,0.795c1.414,0.53,2.586,1.413,3.515,2.65c1.835,2.407,2.752,6.361,2.752,11.86v23.026h-7.295v-23.552   c0-3.225-0.497-5.466-1.492-6.725c-1.039-1.325-2.752-1.988-5.14-1.988c-2.433,0-4.985,0.756-7.66,2.266   c-0.84,0.471-1.636,1.015-2.388,1.634v28.365h-7.295V147.1z"
       id="path3268" /><path
       d="M1106.266,198.989c-1.027-0.936-1.829-2.073-2.403-3.414c-0.575-1.341-0.862-3.059-0.862-5.154   c0-2.095,0.663-4.021,1.989-5.78c2.785-3.694,8.224-5.542,16.314-5.542c1.238,0,2.388,0,3.449,0v-3.826   c0-2.551-0.664-4.27-1.99-5.157c-1.105-0.731-3.128-1.098-6.068-1.098c-2.542,0-5.338,0.6-8.389,1.798   c-0.796,0.306-1.404,0.61-1.824,0.915l-1.79-4.735c1.9-1.194,5.051-2.211,9.45-3.051c1.503-0.287,3.122-0.431,4.857-0.431   s3.427,0.158,5.073,0.474c1.647,0.316,3.067,0.911,4.262,1.783c2.476,1.831,3.714,5.036,3.714,9.615v26.493h-2.984   c-1.415,0-2.333-0.133-2.753-0.398c-0.751-0.508-1.127-1.524-1.127-3.05v-0.266c-1.813,1.658-4.256,2.785-7.328,3.382   c-1.062,0.222-2.294,0.332-3.697,0.332c-1.404,0-2.813-0.248-4.229-0.743C1108.516,200.64,1107.294,199.925,1106.266,198.989z    M1110.195,190.604c0,3.892,2.178,5.836,6.532,5.836c2.409,0,4.709-0.63,6.897-1.89c0.553-0.31,0.929-0.575,1.128-0.796v-10.578   c-2.587,0-4.787,0.222-6.6,0.663c-1.813,0.442-3.045,0.818-3.697,1.128s-1.232,0.636-1.74,0.978   c-0.509,0.344-0.951,0.746-1.326,1.211C1110.594,188.106,1110.195,189.257,1110.195,190.604z"
       id="path3270" /><path
       d="M1164.013,153.653c-1.326-0.479-2.808-0.718-4.443-0.718s-2.78,0.13-3.432,0.39c-0.652,0.261-1.222,0.65-1.708,1.171   c-1.017,1.079-1.525,2.649-1.525,4.711v4.307h9.352v5.504h-9.352v32.828h-7.295v-32.828h-5.736v-4.045l5.736-1.459v-2.999   c0-6.057,2.476-10.135,7.428-12.234c1.879-0.787,3.852-1.181,5.919-1.181c2.066,0,3.752,0.243,5.057,0.729V153.653z"
       id="path3272" /><path
       d="M1171.839,169.018h-4.908v-3.946c0.818-0.242,1.537-0.445,2.156-0.611c0.618-0.165,1.148-0.347,1.591-0.545   c0.885-0.419,1.492-1.063,1.824-1.934c0.332-0.87,0.668-1.884,1.012-3.041c0.342-1.156,0.746-2.495,1.21-4.016h4.377v8.589h10.678   v5.504h-10.678v19.153c0,3.563,0.199,5.698,0.597,6.405c0.398,0.709,0.867,1.129,1.409,1.262s1.161,0.199,1.857,0.199   s1.354-0.044,1.973-0.133c0.619-0.088,1.228-0.199,1.824-0.331c1.393-0.31,2.388-0.631,2.984-0.962l1.26,4.184   c-1.791,1.326-4.289,2.267-7.494,2.818c-1.017,0.178-2.067,0.266-3.15,0.266s-2.155-0.133-3.216-0.398   c-1.062-0.266-1.99-0.752-2.786-1.461c-1.68-1.526-2.52-4.104-2.52-7.733V169.018z"
       id="path3274" /></g><g
     transform="matrix(0.6786372,0,0,0.6786372,-8.8869406,-61.133658)"
     id="g6"><path
       inkscape:connector-curvature="0"
       d="m 530.965,312.983 c -7.322,-34.187 -24.278,-63.599 -44.901,-90.943 -35.219,-46.705 -78.996,-81.514 -138.372,-91.589 -41.582,-7.055 -83.314,-5.974 -124.929,1.363 -37.352,6.586 -71.753,19.416 -100.757,44.689 -20.076,17.494 -36.602,37.527 -46.796,62.479 -11.938,29.221 -10.465,58.641 -1.05,87.862 6.1,18.928 18.429,32.938 37.703,40.005 16.837,6.176 34.104,9.762 52.25,8.928 5.273,8.881 6.299,17.626 5.761,26.817 -0.794,13.458 5.055,24 16.565,30.345 21.688,11.958 44.926,18.749 69.998,16.262 9.814,-0.974 19.492,-3.312 29.631,-5.098 11.592,20.198 30.876,22.284 51.18,21.937 5.483,3.289 11.42,7.622 17.224,7.45 24.04,-0.714 48.117,-2.05 72.029,-4.585 21.189,-2.243 36.101,-13.604 42.021,-35 0.634,-2.279 1.633,-4.456 2.419,-6.561 5.609,-0.706 10.904,-0.607 15.665,-2.158 6.564,-2.138 13.896,-4.212 18.808,-8.64 9.975,-8.99 17.354,-20.29 22.009,-33.147 8.371,-23.126 8.664,-46.496 3.542,-70.416 z M 450.589,197.836 c 1.471,1.581 1.175,4.819 2.001,8.767 -6.763,0.904 -14.322,3.985 -31.854,-4.16 -1.076,-1.088 -2.149,-2.178 -3.245,-3.247 -1.544,-1.51 -1.485,-2.56 0.165,-4.176 3.525,-3.454 11.266,-11.01 15.215,-15.04 6.252,5.55 12.008,11.73 17.718,17.856 z m -39.941,-0.373 c 1.005,1.002 2.008,2.004 3.013,3.006 8.518,9.341 11.252,19.82 10.641,31.085 -0.107,1.985 -0.24,3.964 -0.387,5.94 -5.842,-5.885 -23.679,-23.764 -27.989,-28.085 -7.67,-7.684 -15.355,-15.431 -22.981,-23.153 -0.673,-0.675 -1.004,-1.724 -1.492,-2.581 0.962,-0.242 1.924,-0.704 2.892,-0.723 5.603,-0.074 11.214,0.12 16.807,-0.129 3.661,-0.16 6.221,1.193 8.72,3.76 3.275,3.373 6.593,6.703 9.919,10.024 -0.059,-0.035 -0.115,-0.066 -0.175,-0.102 0.359,0.316 0.688,0.639 1.032,0.958 z M 321.094,133.82 c 30.231,0.908 52.022,10.688 71.521,19.216 -1.78,1.178 -3.753,1.345 -6.024,1.335 -13.938,-0.059 -27.871,-0.031 -41.809,-0.02 -4.398,0.003 -8.674,0.604 -11.892,-4.179 -1.936,-2.878 -6.395,-2.508 -9.188,-0.448 -2.795,2.058 -4.083,5.896 -2.943,9.285 1.169,3.472 3.659,5.238 8.448,5.525 0.939,-0.521 3.482,-1.107 4.583,-2.744 2.183,-3.251 4.955,-3.485 8.213,-3.473 14.861,0.066 29.73,0.063 44.592,-0.007 3.261,-0.013 5.84,0.439 8.18,3.502 2.951,3.875 8.281,3.544 11.316,0.113 0.467,-0.529 0.846,-1.099 1.157,-1.69 10.861,6.509 19.013,14.199 22.02,16.66 0.082,0.067 0.16,0.138 0.242,0.205 -4.11,4.195 -10.012,10.366 -13.629,13.899 -3.229,3.157 -3.315,3.122 -6.654,-0.096 -2.388,-2.313 -4.912,-4.525 -7.004,-7.092 -2.935,-3.604 -6.508,-4.558 -11.043,-4.537 -32.919,0.15 -65.842,0.063 -98.759,0.168 -3.593,0.014 -6.251,-0.925 -8.798,-3.514 -12.143,-12.37 -24.364,-24.556 -36.783,-36.651 -0.708,-0.69 -1.311,-1.375 -1.826,-2.07 9.985,-1.269 21.042,-2.314 33.122,-2.956 4.844,4.828 9.684,9.661 14.553,14.464 1.882,1.865 2.881,3.57 2.51,6.568 -0.683,5.576 2.85,9.225 7.985,9.181 4.741,-0.041 8.03,-3.359 7.961,-8.087 -0.069,-5.011 -3.337,-8.291 -8.682,-7.783 -3.388,0.322 -5.377,-0.791 -7.532,-2.997 -3.842,-3.925 -7.71,-7.774 -11.606,-11.593 11.704,-0.495 24.306,-0.609 37.769,-0.184 z m -202.721,55.629 c 17.079,-18.519 31.3,-22.529 46.653,-31.176 4.72,-2.658 10.07,-4.369 15.432,-6.612 0,0 0.03,-0.012 0.073,-0.029 -0.702,2.646 -2.203,4.886 -4.453,7.12 -32.633,32.419 -65.134,64.979 -97.603,97.571 5.945,-24.313 24.55,-50.236 39.898,-66.874 z m 25.242,174.272 c -2.404,0.205 -5.198,-0.249 -8.619,-0.714 -32.004,-4.372 -42.491,-20.513 -43.334,-21.958 0.006,0 -0.238,-0.417 -0.645,-1.117 0.677,0.683 1.357,1.361 2.031,2.045 2.815,2.859 5.756,4.181 9.759,4.003 5.624,-0.249 11.301,0.326 16.892,-0.159 6.367,-0.553 10.8,1.795 15.26,6.288 3.851,3.883 7.713,7.751 11.574,11.621 -0.966,0.028 -1.94,0.028 -2.918,-0.009 z m 17.926,-4.285 c 0.015,0 0.029,0.004 0.046,0.008 -2.599,1.924 -6.096,3.174 -9.973,3.809 -3.541,-3.442 -11.891,-11.494 -14.832,-14.671 -1.306,-1.42 -0.889,-2.449 1.149,-2.607 0.966,-0.072 1.987,-0.06 2.957,-0.06 11.581,0 23.172,0.006 34.758,0.009 -0.02,0.022 -0.037,0.043 -0.057,0.065 -6.93,8.082 -11.344,11.775 -14.048,13.447 z m 107.399,76.888 c -19.662,3.527 -39.419,3.571 -58.436,-3.048 -7.604,-2.649 -14.461,-7.688 -21.274,-12.214 -2.137,-1.42 -3.022,-4.728 -5.463,-8.818 7.686,1.449 12.959,2.444 18.233,3.439 0.271,-0.706 0.542,-1.412 0.813,-2.122 -1.863,-1.039 -3.707,-2.108 -5.588,-3.114 -16.78,-8.972 -26.213,-25.925 -22.448,-41.919 1.174,-4.99 3.601,-10.461 7.172,-13.963 10.066,-9.861 20.667,-19.265 31.722,-28.003 11.524,-9.107 24.882,-9.924 40.336,-5.748 -2.073,9.158 -5.668,17.984 -5.609,26.784 0.058,8.814 3.761,17.607 6.012,27.012 -7.183,4.438 -16.387,7.124 -19.294,17.124 7.15,-5.649 13.888,-12.133 22.924,-10.354 7.043,7.311 14.398,7.277 14.801,6.63 -1.308,-0.919 -2.656,-1.789 -3.92,-2.767 -7.684,-5.949 -7.379,-9.967 -2.283,-18.408 2.428,-4.021 5.298,-7.312 7.345,-10.93 -2.693,0 -11.826,7.493 -11.943,10.187 -5.27,-5.386 -7.648,-10.249 -7.359,-15.998 0.703,-13.959 5.535,-25.569 18.568,-33.458 10.977,-6.648 21.069,-14.915 30.936,-23.199 16.229,-13.619 35.028,-12.759 54.11,-10.655 8.016,0.889 12.408,6.798 15.608,14.205 2.316,-7.208 2.316,-7.208 -8.142,-20.861 2.739,-2.891 5.469,-6.122 8.564,-8.958 5.188,-4.757 8.106,-9.905 9.032,-17.443 1.043,-8.5 5.348,-16.598 8.182,-24.717 -4.407,1.767 -7.438,6.195 -9.493,11.339 -0.502,1.254 -0.969,2.523 -1.425,3.797 -9.99,-9.997 -19.981,-19.995 -29.938,-30.029 -2.671,-2.693 -5.404,-3.95 -9.203,-3.877 -10.101,0.187 -20.209,0.039 -30.313,0.073 -3.154,0.015 -5.737,-0.199 -8.019,-3.321 -3.024,-4.144 -8.312,-4.083 -11.813,-0.785 -3.377,3.176 -3.299,8.8 0.159,11.956 3.567,3.256 8.648,3.16 11.745,-1.058 2.115,-2.883 4.481,-3.212 7.483,-3.196 9.329,0.053 18.661,0.2 27.981,-0.06 4.221,-0.121 6.913,1.783 9.866,4.844 7.705,7.981 24.359,24.449 30.345,30.367 -1.127,3.299 -2.269,6.59 -3.666,9.771 -6.689,15.218 -18.486,20.707 -35.137,16.781 -11.456,-2.7 -17.752,-13.038 -17.337,-28.406 0.019,-0.651 -0.234,-1.31 -0.563,-3.015 -3.659,3.944 -4.743,7.805 -4.326,11.965 -19.919,0.166 -39.84,0.043 -59.761,0.081 -3.006,0.004 -5.421,-0.344 -7.587,-3.086 -3.19,-4.04 -8.33,-4.125 -11.795,-0.931 -3.143,2.909 -3.308,8.443 -0.34,11.577 3.317,3.509 8.773,3.44 12.25,-0.651 1.855,-2.181 3.74,-2.997 6.464,-2.988 20.526,0.049 41.055,0.017 61.585,0.085 2.125,7.582 2.708,12.231 0.972,15.975 -30.222,-0.021 -60.445,-0.322 -90.67,-0.258 -3.666,0.009 -6.541,-0.7 -9.098,-3.917 -2.92,-3.657 -8.22,-3.457 -11.405,-0.268 -3.098,3.092 -3.107,8.513 -0.017,11.552 3.165,3.113 8.676,3.462 11.442,-0.217 2.724,-3.621 5.946,-3.807 9.684,-3.739 2.911,0.057 5.826,0.006 8.744,0.006 26.289,-0.002 52.575,0.288 78.864,0.277 -2.145,2.171 -5.35,4.243 -9.841,6.756 -3.424,1.916 -6.771,3.969 -10.098,6.059 -6.514,-0.293 -13.028,-0.812 -19.542,-0.777 -2.699,0.013 -4.596,-1.398 -6.449,-3.643 -3.342,-4.041 -9.005,-4.083 -12.289,-0.622 -3.081,3.24 -2.925,8.463 0.348,11.531 3.352,3.142 8.646,3.054 11.859,-0.86 2.038,-2.479 4.605,-1.84 7.422,-1.813 4.896,0.047 8.011,-0.053 12.516,0.062 -1.835,1.16 -3.675,2.314 -5.527,3.444 -2.175,1.328 -6.954,3.348 -6.978,3.333 -5.084,2.686 -20.487,9.309 -20.487,9.309 -0.018,0.004 -0.035,0.008 -0.053,0.011 -3.747,1.095 -11.171,1.116 -15.057,0.94 -4.126,-0.183 -8.262,-1.142 -12.35,-0.918 -0.15,0.008 -0.298,0.021 -0.448,0.029 2.107,-2.31 3.881,-3.883 8.394,-3.28 4.532,0.605 7.6,-3.879 7.195,-8.646 -0.369,-4.34 -3.868,-7.388 -8.31,-7.234 -4.764,0.161 -7.697,3.694 -7.933,8.976 -0.084,1.926 -0.508,4.369 -1.738,5.633 -1.866,1.911 -3.746,3.81 -5.62,5.712 -1.279,0.314 -2.596,0.696 -3.985,1.188 -0.009,0.004 -0.016,0.008 -0.025,0.012 -8.418,3.731 -17.205,12.4 -17.205,12.4 l -0.068,0.033 c -2.163,1.497 -15.666,12.626 -21.581,18.541 -6.841,0.068 -13.684,-0.01 -20.524,-0.06 -1.266,-0.005 -2.528,-0.466 -3.792,-0.717 0.709,-1.081 1.255,-2.327 2.144,-3.226 9.85,-9.931 19.799,-19.773 29.619,-29.732 2.069,-2.093 4.149,-2.929 7.192,-2.768 5.71,0.304 9.067,-3.146 8.831,-8.326 -0.221,-4.72 -3.776,-7.935 -8.465,-7.644 -4.786,0.296 -8.355,4.089 -7.56,9.12 0.514,3.271 -0.711,5 -2.737,7.009 -11.043,10.932 -22.052,21.907 -32.93,33.003 -2.371,2.424 -4.835,3.454 -8.198,3.414 -13.015,-0.143 -26.034,-0.172 -39.05,0.044 -3.853,0.064 -6.548,-1.189 -9.184,-3.846 -3.421,-3.449 -6.85,-6.878 -10.276,-10.311 -2.11,-4.148 -5.126,-10.151 -7.261,-18.272 6.292,6.272 12.582,12.552 18.915,18.786 1.722,1.695 4.664,2.839 7.111,2.973 7.161,0.39 14.376,-0.064 21.548,0.224 4.452,0.175 7.609,-1.391 10.725,-4.52 35.905,-36.079 71.945,-72.023 107.916,-108.038 2.66,-2.667 5.029,-4.879 9.472,-4.378 4.362,0.498 7.472,-2.825 7.913,-6.881 0.487,-4.486 -2.72,-8.569 -7.143,-9.091 -4.726,-0.56 -9.098,2.821 -8.761,7.803 0.302,4.512 -1.687,7.216 -4.57,10 -5.447,5.266 -10.732,10.701 -16.087,16.056 -30.087,30.082 -60.234,60.101 -90.18,90.327 -3.617,3.649 -7.292,5.26 -12.302,4.927 -4.646,-0.306 -9.345,-0.356 -13.976,0.009 -4.897,0.39 -8.557,-1.121 -11.722,-4.885 -3.341,-3.976 -3.604,-3.864 -0.064,-7.422 11.782,-11.845 23.64,-23.618 35.393,-35.488 2.415,-2.44 4.757,-4.03 8.562,-3.75 4.508,0.322 7.344,-2.225 7.973,-6.063 0.531,-3.271 -0.119,-6.244 -2.949,-8.321 -2.771,-2.027 -5.772,-2.168 -8.778,-0.54 -3.017,1.63 -4.686,4.332 -4.219,7.667 0.377,2.726 0.095,4.704 -1.963,6.742 -12.434,12.291 -24.789,24.657 -37.056,37.118 -2.649,2.693 -4.386,2.65 -7.084,-0.099 -3.375,-3.442 -6.785,-6.857 -10.184,-10.276 -0.537,-3.303 -0.906,-6.871 -1.01,-10.74 -0.064,-2.395 -0.965,-14.779 1.812,-27.042 1.488,-1.783 2.944,-3.527 4.396,-4.975 33.245,-33.223 66.435,-66.38 99.754,-99.526 3.04,-3.029 4.401,-5.864 4.457,-10.097 5.057,-1.687 14.206,-4.453 27.098,-7.241 0.003,2.326 0.006,4.655 0.012,6.994 0.005,3.257 -1.352,5.366 -3.533,7.532 -32.188,32.074 -64.316,64.217 -96.456,96.342 -3.63,3.626 -6.661,7.631 -13.05,6.899 -4.125,-0.476 -7.245,4.336 -6.808,8.527 0.414,4.06 3.707,7.13 7.811,7.263 4.586,0.15 8.626,-2.719 8.07,-7.129 -0.682,-5.436 2.324,-8.136 5.487,-11.296 32.436,-32.383 64.801,-64.72 97.359,-96.984 3.9,-3.864 5.439,-7.512 5.419,-13.008 -0.008,-2.02 -0.009,-4.03 -0.012,-6.042 2.745,-0.557 5.637,-1.11 8.677,-1.651 -0.065,9.412 -0.172,27.099 -0.157,37.932 0.001,3.19 -1.091,6.435 -3.313,8.637 -14.08,13.936 -28.096,27.708 -42.023,41.791 -2.563,2.591 -4.837,4.373 -8.965,3.864 -4.636,-0.569 -8.185,3.396 -8.213,7.885 -0.035,4.58 3.476,8.107 8.107,8.125 4.819,0.016 8.946,-3.722 8.068,-8.53 -0.693,-3.842 0.988,-5.673 3.234,-7.909 12.811,-12.741 25.197,-25.804 38.483,-38.016 6.636,-6.098 8.807,-12.315 8.764,-21.064 -0.057,-10.938 -0.062,-22.308 -0.074,-33.392 3.747,-0.627 7.699,-1.232 11.849,-1.8 0.548,0.856 1.212,1.684 2.043,2.495 12.88,12.619 25.683,25.324 38.247,38.26 3.228,3.319 6.524,4.51 11.051,4.47 22.064,-0.194 44.127,-0.001 66.189,-0.173 4.164,-0.031 6.842,1.734 9.804,4.727 13.362,13.55 41.354,41.234 55.238,55.157 -1.708,18.098 -5.433,35.713 -13.778,52.414 -6.843,13.696 -16.605,23.825 -30.378,30.257 -0.999,0.468 8.014,2.313 13.557,1.62 2.58,5.347 0.494,10.158 -3.103,13.726 -3.538,3.509 -8.062,6.206 -12.529,8.54 -4.441,2.32 -9.351,3.751 -14.054,5.569 0.044,0.647 0.088,1.299 0.133,1.947 3.76,-0.293 7.69,0.007 11.237,-1.021 5.103,-1.481 9.771,-4.669 14.916,-5.756 5.22,-1.104 11.351,-2.1 16.093,-0.392 9.777,3.527 19.299,6.532 29.825,5.229 1.826,-0.228 3.776,0.53 5.431,0.794 11.918,26.027 0.637,48.168 -25.87,47.524 -15.584,-0.377 -30.596,-1.193 -43.941,-10.422 -5.954,-4.116 -12.28,-3.398 -18.841,-0.782 -10.17,4.05 -17.178,3.425 -22.178,-1.713 0,-2.759 0,-5.836 0,-10.776 -4,2.5 -3.598,3.776 -4.561,5.357 -4.881,8.014 -11.666,10.531 -20.03,7.245 -6.635,-2.605 -8.143,-7.425 -5.629,-17.806 0.099,-0.409 -0.064,-0.885 -0.112,-1.347 -3.304,2.441 -3.303,2.441 -7.478,20.016 -10.714,10.783 -28.68,5.848 -40.638,17.735 23.25,-4.764 25.61,4.124 17.966,20.63 4.925,-1.837 7.084,-5.107 8.853,-12.21 1.18,-4.742 1.525,-11.288 4.716,-13.568 5.386,-3.849 12.731,-4.954 17.885,-6.736 6.778,7.586 12.219,13.671 18.064,20.213 -15.726,7.759 -32.376,14.177 -50.097,17.356 z m 52.315,-180.1 c 0.042,0 0.086,-10e-4 0.128,-10e-4 l 0.002,0.023 c -0.043,0 -0.085,0 -0.127,0 z m 85.125,208.074 c -2.901,0.134 -5.802,0.297 -8.701,0.471 -1.033,-0.024 -2.064,-0.055 -3.095,-0.098 -2.585,-0.107 -5.285,-1.054 -7.648,-2.198 -7.163,-3.469 -12.961,-8.841 -18.74,-14.187 -0.692,-0.638 -1.159,-1.445 -1.157,-2.23 0.953,-0.633 1.895,-1.282 2.809,-1.967 0.033,-0.024 0.064,-0.052 0.098,-0.076 0.469,0.029 0.917,0.132 1.246,0.305 3.033,1.592 5.828,3.625 8.829,5.282 11.105,6.137 22.624,11.231 35.169,13.698 0.05,0.01 0.098,0.03 0.147,0.057 -2.927,0.48 -5.909,0.802 -8.957,0.943 z m -47.195,3.048 c -7.272,0.41 -13.177,-2.158 -16.195,-8.5 6.045,-3.229 12.229,-5.989 18.022,-9.176 1.168,0.148 2.117,1.081 3.062,2.102 5.057,5.472 10.945,9.895 17.596,14.068 -7.494,0.535 -14.987,1.082 -22.485,1.506 z m -54.336,-30.064 c 3.426,-1.073 6.801,-2.132 10.213,-3.2 4.717,6.729 10.305,14.771 14.746,21.107 -0.537,0.244 -1.083,0.463 -1.638,0.659 -7.848,-0.938 -18.721,-9.842 -23.321,-18.566 z m 154.962,-5.062 c -3.396,-2.858 -11.475,-8.284 -35.243,-13.83 -6.097,-1.422 -14.009,-1.565 -21.301,-2.109 4.721,-1.26 9.487,-2.194 14.167,-2.035 14.842,0.509 29.226,4.365 43.023,11.388 0.059,2.345 -0.18,4.529 -0.646,6.586 z m -130.309,6.778 c -0.852,-1.953 -1.764,-3.828 -2.53,-5.55 2.537,-3.721 8.948,-7.088 16.42,-9.505 -3.118,7.004 -6.796,12.62 -13.89,15.055 z m 1.555,3.776 c 4.174,-1.771 7.917,-3.7 10.579,-7.047 2.893,-3.641 5.847,-7.292 8.211,-11.273 0.734,-1.238 1.639,-2.187 2.668,-2.882 2.763,-0.552 5.517,-0.958 8.149,-1.191 0.132,0.026 0.263,0.049 0.396,0.079 -4.058,12.048 -13.317,19.882 -24.354,24.511 -2.019,0.845 -2.827,0.856 -4.307,0.162 -0.504,-0.705 -0.95,-1.493 -1.342,-2.359 z m 9.236,6.337 c -0.37,-10e-4 -0.732,-0.016 -1.081,-0.047 3.054,-1.629 5.963,-3.025 8.706,-4.693 8.248,-5.014 14.067,-12.315 17.425,-21.15 0.535,-1.406 1.174,-2.355 1.928,-3.033 3.391,0.136 6.291,0.685 8.303,1.742 -2.014,5.988 -8.409,13.098 -15.67,18.545 -6.471,4.791 -13.601,8.135 -19.611,8.636 z m -12.73,-33.508 c -10.478,-6.158 -12.698,-9.817 -10.545,-18.259 4.676,0.678 9.642,0.959 14.367,2.174 7.314,1.881 14.261,2.36 21.235,-1.303 10.809,-5.679 16.678,-3.875 24.769,7.922 -15.288,11.932 -33.927,4.808 -49.826,9.466 z m 46.468,24.792 c 2.188,-2.214 4.195,-4.668 6.178,-7.162 2.437,-2.104 5.132,-2.011 7.421,0.3 2.394,2.415 4.597,5.021 6.979,7.45 7.565,7.713 17.229,12.015 26.853,16.367 0.219,0.099 3.729,1.829 3.922,1.983 -18.151,0.406 -36.308,-9.26 -51.353,-18.938 z m 12.406,-14.749 c 0.08,-0.089 0.159,-0.181 0.239,-0.27 1.269,-1.398 2.592,-3.011 4.028,-4.305 3.833,0.159 7.478,0.362 11.114,0.308 19.35,-0.295 27.467,1.11 42.206,7.51 1.624,0.705 3.19,1.202 4.603,1.855 1.217,0.563 2.339,1.175 3.414,1.818 2.191,1.313 4.144,2.841 6.047,4.693 -1.033,2.209 -2.367,4.237 -3.938,6.112 -20.214,-14.018 -43.53,-16.438 -67.713,-17.721 z m -93.114,15.249 c 2.452,-0.769 4.832,-1.515 7.176,-2.249 4.156,8.785 9.681,13.931 17.538,18.357 -9.243,-0.905 -18.841,-6.693 -24.714,-16.108 z m 142.516,15.855 c -1.009,-0.105 -2.064,-0.38 -3.226,-0.842 -9.488,-3.778 -19.082,-7.274 -27.364,-13.415 -3.917,-2.901 -7.521,-6.228 -12.653,-10.52 6.384,0 10.811,-0.28 15.173,0.128 0.426,0.04 0.878,0.134 1.333,0.257 3.244,0.461 9.658,1.536 14.23,3.379 9.633,1.879 18.531,5.384 26.344,12.103 -1.047,0.89 -2.141,1.745 -3.28,2.562 -3.396,2.43 -6.917,4.541 -10.557,6.348 z m 86.417,-89.597 c 0,0 -1.546,6.096 -4.912,14.263 -0.138,0.413 -0.271,0.823 -0.452,1.251 -0.077,0.18 -0.198,0.326 -0.285,0.498 -2.737,6.378 -6.526,13.772 -11.488,20.454 -0.294,0.45 -0.607,0.89 -0.968,1.281 -10.714,11.676 -24.721,12.51 -39.142,10.622 -4.745,-0.622 -9.458,-2.356 -13.894,-4.267 -6.816,-2.935 -8.854,-8.902 -5.807,-15.605 1.006,-2.207 2.386,-4.245 3.421,-6.44 1.028,-2.177 1.841,-4.453 2.909,-7.084 18.043,3.289 33.331,-0.113 41.806,-18.705 -1.42,1.273 -2.88,2.506 -4.252,3.831 -6.016,5.8 -13.066,9.184 -21.52,9.484 -15.723,0.563 -21.197,-5.672 -18.665,-21.842 4.344,-2.733 8.921,-5.612 13.864,-8.727 -11.818,1.179 -22.76,3.619 -33.499,2.924 -9.213,-0.597 -18.343,-4.384 -27.18,-7.655 -2.175,-0.809 -4.484,-5.247 -4.225,-7.753 0.46,-4.417 2.335,-8.921 4.536,-12.877 4.822,-8.668 10.201,-17.029 15.4,-25.489 0.732,-1.189 1.72,-2.221 3.594,-4.599 9.579,12.386 19.346,24.175 39.247,22.02 10.535,-1.563 12.75,-11.775 12.75,-11.775 -6.423,8.515 -17.658,11.197 -27.84,5.12 -12.009,-7.172 -19.484,-17.82 -19.057,-32.321 0.264,-8.958 1.95,-17.871 2.901,-26.813 0.896,-8.435 1.954,-16.861 2.397,-25.321 0.325,-6.224 3.224,-9.071 9.191,-8.463 22.174,2.254 40.843,10.509 52.08,31.117 0.325,0.6 0.354,1.365 0.761,3.037 -2.177,0.651 -4.332,1.921 -6.422,1.815 -7.333,-0.369 -10.161,3.736 -12.203,10.03 -1.259,3.875 -3.651,8.039 -6.776,10.491 -4.16,3.264 -9.218,1.987 -11.925,-2.701 -2.547,-4.413 -0.937,-8.174 3.56,-11.05 8.793,-5.624 9.976,-13.154 3.63,-22.372 -0.233,4.219 0.479,8.493 -0.926,11.892 -1.383,3.348 -4.914,5.803 -7.548,8.701 -4.019,-6.133 -7.136,-10.89 -10.561,-16.115 1.485,9.964 2.935,18.581 4.007,27.246 0.815,6.561 3.194,11.76 9.993,13.802 6.824,2.049 11.812,-1.01 15.928,-6.096 2.905,-3.593 5.496,-7.464 8.584,-10.889 7.22,-7.999 17.1,-6.561 22.102,3.041 4.588,8.8 2.692,20.443 -4.713,28.417 -0.852,0.915 -6.204,5.386 -7.249,6.29 0,0 12.295,-1.991 16.744,-9.503 7.867,5.749 13.407,33.013 8.936,41.088 -2.86,-1.079 -16.195,-5.063 -20.86,-2.74 7.007,3.355 6.019,15.452 2.1,24.135 0.831,0.213 10.293,-8.525 9.551,-17.336 13.083,2.21 16.822,16.796 12.377,31.688 z"
       id="path2-2" /><path
       inkscape:connector-curvature="0"
       d="m 308.011,339.019 c 6.102,7.435 7.709,15.842 5.625,24.878 -0.779,3.366 -0.953,6.521 -0.479,9.933 1.008,-1.261 1.641,-2.618 2.049,-4.034 0.878,-3.022 1.326,-6.208 2.524,-9.086 2.148,-5.161 5.145,-6.495 10.32,-4.768 2.666,0.888 7.706,1.713 12.946,1.407 1.014,-0.061 2.034,-0.63 3.046,-0.781 -8.588,-2.968 -19.086,-3.864 -25.593,-10.238 -2.553,-2.499 -2.646,-5.555 0.283,-7.514 2.581,-1.733 5.532,-3.28 8.533,-3.958 7.691,-1.729 15.417,-3.474 23.399,-3.236 0.88,0.025 1.788,-0.208 2.629,-0.478 0.848,-0.267 1.629,-0.735 3.438,-1.577 -12.28,-1.041 -23.283,-1.701 -34.278,1.401 -3.112,0.879 -6.828,0.35 -10.104,-0.329 -3.474,-0.719 -6.726,-2.463 -10.123,-3.619 -4.626,-1.576 -4.67,-1.247 -9.354,-0.896 -0.289,0.43 9.527,6.059 15.139,12.895 z"
       id="path4-9" /></g></svg>